<?xml version="1.0" encoding="UTF-8" standalone="no"?>
<svg
   xmlns:dc="http://purl.org/dc/elements/1.1/"
   xmlns:cc="http://creativecommons.org/ns#"
   xmlns:rdf="http://www.w3.org/1999/02/22-rdf-syntax-ns#"
   xmlns:svg="http://www.w3.org/2000/svg"
   xmlns="http://www.w3.org/2000/svg"
   xmlns:sodipodi="http://sodipodi.sourceforge.net/DTD/sodipodi-0.dtd"
   xmlns:inkscape="http://www.inkscape.org/namespaces/inkscape"
   width="142.73322mm"
   height="21.40267mm"
   viewBox="0 0 142.73322 21.40267"
   version="1.1"
   id="svg1492"
   inkscape:version="1.0.2 (e86c8708, 2021-01-15)"
   sodipodi:docname="oxool_demo.svg">
  <defs
     id="defs1486" />
  <sodipodi:namedview
     id="base"
     pagecolor="#ffffff"
     bordercolor="#666666"
     borderopacity="1.0"
     inkscape:pageopacity="0.0"
     inkscape:pageshadow="2"
     inkscape:zoom="0.35"
     inkscape:cx="392.58904"
     inkscape:cy="554.7317"
     inkscape:document-units="mm"
     inkscape:current-layer="layer1"
     inkscape:document-rotation="0"
     showgrid="false"
     fit-margin-top="0"
     fit-margin-left="0"
     fit-margin-right="0"
     fit-margin-bottom="0"
     inkscape:window-width="1440"
     inkscape:window-height="875"
     inkscape:window-x="0"
     inkscape:window-y="25"
     inkscape:window-maximized="0" />
  <metadata
     id="metadata1489">
    <rdf:RDF>
      <cc:Work
         rdf:about="">
        <dc:format>image/svg+xml</dc:format>
        <dc:type
           rdf:resource="http://purl.org/dc/dcmitype/StillImage" />
        <dc:title></dc:title>
      </cc:Work>
    </rdf:RDF>
  </metadata>
  <g
     inkscape:label="Layer 1"
     inkscape:groupmode="layer"
     id="layer1"
     transform="translate(-1.9608153,-1.3939048)">
    <g
       id="g26218-2-9-2-7-4-7-4-4-1-9-0-7"
       transform="matrix(2.007607,0,0,2.007607,-1007.5126,-3274.0042)"
       style="display:inline;fill:#fd8f25;fill-opacity:1"
       inkscape:export-filename="/Users/rita/Desktop/oxool_about.png"
       inkscape:export-xdpi="600"
       inkscape:export-ydpi="600" />
    <g
       id="g1484"
       style="fill:#fd8f25;fill-opacity:1"
       transform="matrix(0.85291165,0,0,0.85291165,480.84488,117.42092)">
      <path
         inkscape:export-ydpi="600"
         inkscape:export-xdpi="600"
         sodipodi:nodetypes="scscsscscsccccccccccccccsccscccccccccccccccccccccccccccccsssssccccccccccccccccccccccc"
         inkscape:connector-curvature="0"
         d="m -1139.6439,-167.85663 c -3.6802,0 -6.6637,3.29709 -6.6637,7.36356 0,4.06707 2.9835,7.36416 6.6637,7.36416 3.6802,0 6.6636,-3.29709 6.6636,-7.36416 0,-4.06647 -2.9834,-7.36356 -6.6636,-7.36356 z m 0,2.1484 c 2.4028,0 4.3507,2.33472 4.3507,5.21516 0,2.88043 -1.9479,5.21556 -4.3507,5.21556 -2.4028,0 -4.3508,-2.33513 -4.3508,-5.21556 0,-2.88044 1.948,-5.21516 4.3508,-5.21516 z m 37.2593,-1.66117 v 13.83987 h 5.1648 v -1.75501 h -3.0662 v -4.59518 h 3.0662 v -1.73701 h -3.0662 v -3.99805 h 3.0662 v -1.75462 z m -2.7663,-0.1349 c -3.3261,0.42232 -5.7769,2.93342 -5.7769,7.20832 0,4.15563 2.2932,6.6591 5.7769,6.93831 v -1.843 c -2.2289,-0.42526 -3.5697,-2.24675 -3.5697,-5.20402 0,-3.08711 1.4641,-4.856 3.5697,-5.29768 z m -10.6418,13.97457 h 2.0987 v -13.83986 h -2.0987 z m -7.174,-13.83986 v 13.83986 h 2.0986 v -6.0788 h 2.3092 v -1.73643 h -2.3092 v -4.2702 h 2.3092 v -1.75443 z m -7.631,0 v 13.83986 h 2.0986 v -6.0788 h 2.7662 v -1.73643 h -2.7662 v -4.2702 h 2.7662 v -1.75443 z m -37.3852,-3.79059 c -5.9101,0 -10.7012,4.79108 -10.7012,10.70133 0,5.91005 4.7911,10.70134 10.7012,10.70134 5.9101,0 10.7012,-4.79129 10.7012,-10.70134 0,-5.91025 -4.7911,-10.70133 -10.7012,-10.70133 z m 0,2.77036 c 4.3803,0 7.9312,3.55068 7.9313,7.93097 -10e-5,4.38029 -3.551,7.93098 -7.9313,7.93098 -4.3801,0 -7.9309,-3.55089 -7.931,-7.93098 10e-5,-4.38029 3.5509,-7.93059 7.931,-7.93097 z m 6.6101,-1.67388 -0.018,0.0235 c 0.068,0.0392 0.1355,0.0821 0.2026,0.12318 z m 2.3049,1.84691 c 1.5971,1.6506 2.6506,3.75071 3.019,6.01779 l 2.3946,1.91886 -2.4425,1.95678 c -0.4216,2.25829 -1.5245,4.33336 -3.1603,5.94584 l 7.7332,-6.19552 6.2096,4.97487 0.038,-0.0489 c -1.5643,-1.56711 -2.5467,-3.59292 -2.7927,-5.7595 l -1.2081,-0.96804 1.1762,-0.94202 c 0.1553,-1.77456 0.8052,-3.47521 1.8806,-4.92012 l -5.1873,4.15543 z"
         style="display:inline;fill:#fd8f25;fill-opacity:1;stroke:none;stroke-width:0.155039"
         id="path4407-0-9-3-88-3-3-8-1-2-2-2-4-6-5-7-4-4"
         inkscape:export-filename="/Users/rita/Desktop/oxool_about.png"
         transform="matrix(1.1724544,0,0,1.1724544,820.48364,64.641124)" />
      <g
         id="g1462">
        <path
           id="path31343-6-8-2-0-5-9-5-8-6"
           style="display:inline;fill:#fd8f25;fill-opacity:1;stroke-width:0.297897"
           d="m -449.09392,-132.12186 a 7.88339,8.6326798 0 0 0 -7.8525,8.63253 7.88339,8.6326798 0 0 0 7.88347,8.63276 7.88339,8.6326798 0 0 0 7.8827,-8.63276 7.88339,8.6326798 0 0 0 -7.8827,-8.63253 7.88339,8.6326798 0 0 0 -0.0312,0 z m 0.0342,2.4295 a 5.0808502,6.1917163 0 0 1 5.08064,6.19111 5.0808502,6.1917163 0 0 1 -5.08064,6.19203 5.0808502,6.1917163 0 0 1 -5.08063,-6.19203 5.0808502,6.1917163 0 0 1 5.08063,-6.19111 z"
           inkscape:export-filename="/Users/rita/Desktop/oxool_about.png"
           inkscape:export-xdpi="600"
           inkscape:export-ydpi="600" />
        <g
           id="g26107-5-8-3-3-9-9-8-5-5-9-5-4"
           style="display:inline;fill:#fd8f25;fill-opacity:1"
           transform="matrix(2.3538276,0,0,2.3538276,-1671.8375,-4004.467)"
           inkscape:export-filename="/Users/rita/Desktop/oxool_about.png"
           inkscape:export-xdpi="600"
           inkscape:export-ydpi="600">
          <rect
             style="display:inline;fill:#fd8f25;fill-opacity:1;stroke-width:0.0377218"
             id="rect5557-7-5-4-3-7-1-4-3-3-3-9-0-8-9-4-4-3"
             width="1.0874743"
             height="6.8927994"
             x="540.25214"
             y="1645.3468" />
          <rect
             style="display:inline;fill:#fd8f25;fill-opacity:1;stroke-width:0.017681"
             id="rect5557-7-2-5-8-5-2-6-6-5-5-8-2-1-1-1-5-5-8"
             width="0.86867714"
             height="1.8957679"
             x="-1646.2208"
             y="540.92902"
             transform="rotate(-90)" />
          <rect
             style="display:inline;fill:#fd8f25;fill-opacity:1;stroke-width:0.017681"
             id="rect5557-7-2-0-4-6-9-1-4-3-1-0-6-7-5-4-9-6-6-4"
             width="0.86867714"
             height="1.8957679"
             x="-1649.0775"
             y="540.92902"
             transform="rotate(-90)" />
          <rect
             style="display:inline;fill:#fd8f25;fill-opacity:1;stroke-width:0.017681"
             id="rect5557-7-2-4-2-1-7-8-0-0-5-2-1-8-6-7-6-2-6-0"
             width="0.86867714"
             height="1.8957679"
             x="-1652.2406"
             y="540.92902"
             transform="rotate(-90)" />
        </g>
        <g
           id="g26131-5-1-2-6-6-1-5-1-8-6-0-0"
           transform="matrix(2.3538276,0,0,2.3538276,-1752.9786,-4005.3192)"
           style="display:inline;fill:#fd8f25;fill-opacity:1"
           inkscape:export-filename="/Users/rita/Desktop/oxool_about.png"
           inkscape:export-xdpi="600"
           inkscape:export-ydpi="600">
          <rect
             style="display:inline;fill:#fd8f25;fill-opacity:1;stroke-width:0.0185666"
             id="rect5557-6-2-6-8-6-8-6-8-7-5-3-9-0-3-9"
             width="0.85186172"
             height="2.1317065"
             x="-1652.606"
             y="563.50873"
             transform="rotate(-90)" />
          <rect
             style="display:inline;fill:#fd8f25;fill-opacity:1;stroke-width:0.0373708"
             id="rect5557-71-6-7-0-9-5-5-8-9-5-8-8-1-8-8-3"
             width="1.0661743"
             height="6.9003329"
             x="563.50873"
             y="1645.7056" />
        </g>
        <rect
           style="display:inline;fill:#fd8f25;fill-opacity:1;stroke-width:0.0378124"
           id="rect5557-71-6-1-9-3-5-0-3-7-5-4-8-3-1-9-5"
           width="1.032405"
           height="7.2953663"
           x="-14.800524"
           y="1729.9937"
           transform="matrix(2.3538276,0,0.77557625,2.2223829,-1745.0312,-3976.2911)" />
        <rect
           style="display:inline;fill:#fd8f25;fill-opacity:1;stroke-width:0.0373708"
           id="rect5557-71-6-7-4-2-8-1-7-6-3-6-0-4-4-0-7"
           width="1.0661743"
           height="6.9003329"
           x="555.16797"
           y="1633.3733"
           transform="matrix(2.3538276,0,0,2.3538276,-1745.0312,-3976.2911)" />
        <rect
           style="display:inline;fill:#fd8f25;fill-opacity:1;stroke-width:0.0373708"
           id="rect5557-71-6-7-5-6-5-0-6-6-9-0-4-1-5-7-2"
           width="1.0661743"
           height="6.9003329"
           x="557.6167"
           y="1633.3733"
           transform="matrix(2.3538276,0,0,2.3538276,-1745.0312,-3976.2911)" />
        <g
           id="g26218-6-8-9-3-5-9-3-8-6-0-0-9-9"
           transform="matrix(2.3538276,0,0,2.3538276,-1718.1133,-3976.2912)"
           style="display:inline;fill:#fd8f25;fill-opacity:1"
           inkscape:export-filename="/Users/rita/Desktop/oxool_about.png"
           inkscape:export-xdpi="600"
           inkscape:export-ydpi="600">
          <rect
             style="display:inline;fill:#fd8f25;fill-opacity:1;stroke-width:0.0378124"
             id="rect5557-71-6-1-9-9-3-1-7-4-9-3-3-0-6-7-8-7"
             width="1.032405"
             height="7.2953663"
             x="-14.800524"
             y="1729.9937"
             transform="matrix(1,0,0.32949578,0.94415705,0,0)" />
          <rect
             style="display:inline;fill:#fd8f25;fill-opacity:1;stroke-width:0.0373708"
             id="rect5557-71-6-7-4-5-6-4-9-6-0-7-5-3-4-8-7-5"
             width="1.0661743"
             height="6.9003329"
             x="555.16797"
             y="1633.3733" />
          <rect
             style="display:inline;fill:#fd8f25;fill-opacity:1;stroke-width:0.0373708"
             id="rect5557-71-6-7-5-0-6-0-0-8-4-7-2-2-1-4-7-6"
             width="1.0661743"
             height="6.9003329"
             x="557.6167"
             y="1633.3733" />
        </g>
        <rect
           style="display:inline;fill:#fd8f25;fill-opacity:1;stroke-width:0.0879644"
           id="rect5557-71-6-7-7-6-1-3-4-2-7-6-1-5-0-5"
           width="2.5095904"
           height="16.242193"
           x="-417.70721"
           y="-131.60916"
           inkscape:export-filename="/Users/rita/Desktop/oxool_about.png"
           inkscape:export-xdpi="600"
           inkscape:export-ydpi="600" />
      </g>
    </g>
  </g>
</svg>
